<svg width="288" height="42" viewBox="0 0 288 42" fill="none" xmlns="http://www.w3.org/2000/svg">
<rect x="0.5" y="1" width="287" height="40" rx="19.5" stroke="white"/>
<path d="M43.312 15.8V27H42.144V16.824H35.056V27H33.888V15.8H43.312ZM50.2911 27.08C49.4805 27.08 48.7498 26.8987 48.0991 26.536C47.4485 26.1627 46.9365 25.6507 46.5631 25C46.1898 24.3493 46.0031 23.6133 46.0031 22.792C46.0031 21.9707 46.1898 21.2347 46.5631 20.584C46.9365 19.9333 47.4485 19.4267 48.0991 19.064C48.7498 18.7013 49.4805 18.52 50.2911 18.52C51.1018 18.52 51.8325 18.7013 52.4831 19.064C53.1338 19.4267 53.6405 19.9333 54.0031 20.584C54.3765 21.2347 54.5631 21.9707 54.5631 22.792C54.5631 23.6133 54.3765 24.3493 54.0031 25C53.6405 25.6507 53.1338 26.1627 52.4831 26.536C51.8325 26.8987 51.1018 27.08 50.2911 27.08ZM50.2911 26.072C50.8885 26.072 51.4218 25.9387 51.8911 25.672C52.3711 25.3947 52.7445 25.0053 53.0111 24.504C53.2778 24.0027 53.4111 23.432 53.4111 22.792C53.4111 22.152 53.2778 21.5813 53.0111 21.08C52.7445 20.5787 52.3711 20.1947 51.8911 19.928C51.4218 19.6507 50.8885 19.512 50.2911 19.512C49.6938 19.512 49.1551 19.6507 48.6751 19.928C48.2058 20.1947 47.8325 20.5787 47.5551 21.08C47.2885 21.5813 47.1551 22.152 47.1551 22.792C47.1551 23.432 47.2885 24.0027 47.5551 24.504C47.8325 25.0053 48.2058 25.3947 48.6751 25.672C49.1551 25.9387 49.6938 26.072 50.2911 26.072ZM56.991 18.584H58.127V25.272L63.743 18.584H64.751V27H63.615V20.312L58.015 27H56.991V18.584ZM71.5266 27.08C70.6946 27.08 69.948 26.8987 69.2866 26.536C68.636 26.1733 68.124 25.6667 67.7506 25.016C67.3773 24.3547 67.1906 23.6133 67.1906 22.792C67.1906 21.9707 67.3773 21.2347 67.7506 20.584C68.124 19.9333 68.636 19.4267 69.2866 19.064C69.948 18.7013 70.6946 18.52 71.5266 18.52C72.252 18.52 72.8973 18.664 73.4626 18.952C74.0386 19.2293 74.492 19.64 74.8226 20.184L73.9746 20.76C73.6973 20.344 73.3453 20.0347 72.9186 19.832C72.492 19.6187 72.028 19.512 71.5266 19.512C70.9186 19.512 70.3693 19.6507 69.8786 19.928C69.3986 20.1947 69.02 20.5787 68.7426 21.08C68.476 21.5813 68.3426 22.152 68.3426 22.792C68.3426 23.4427 68.476 24.0187 68.7426 24.52C69.02 25.0107 69.3986 25.3947 69.8786 25.672C70.3693 25.9387 70.9186 26.072 71.5266 26.072C72.028 26.072 72.492 25.9707 72.9186 25.768C73.3453 25.5653 73.6973 25.256 73.9746 24.84L74.8226 25.416C74.492 25.96 74.0386 26.376 73.4626 26.664C72.8866 26.9413 72.2413 27.08 71.5266 27.08ZM80.0783 23.256H78.1583V27H77.0223V18.584H78.1583V22.28H80.0943L83.0543 18.584H84.2863L80.9743 22.664L84.5263 27H83.1823L80.0783 23.256Z" fill="white"/>
</svg>
